<?xml version="1.0" encoding="UTF-8"?>
<svg enable-background="new 0 0 576 576" version="1.1" viewBox="0 0 576 576" xml:space="preserve" xmlns="http://www.w3.org/2000/svg" xmlns:xlink="http://www.w3.org/1999/xlink">
  <path class="st3" d="m545.7 163.1c-25.2-51.7-62.9-92.1-112.3-121.5-30.6-18.2-63.5-30.3-98.6-36.1-8.1-1.4-16.3-2-24.4-3-1.8-0.2-3.6-0.7-5.4-1h-33.6c-5.7 0.7-11.4 1.4-17.1 2.1-67 8.3-124.1 36.7-171.3 84.9-39 39.7-64 87.1-75.5 141.5-2.5 12-3.4 24.3-5.1 36.5-0.2 1.6-0.7 3.2-1 4.8v29.1c0.7 6.6 1.4 13.3 2.2 19.9 5.1 45.7 20.7 87.5 46 125.8 23.9 36 54.4 65.2 91.4 87.6 28.3 17.1 58.7 28.9 91.2 35.4 27.8 5.5 55.9 7.2 84.1 4.3 48.6-5 93.3-21 133.5-48.8 49.6-34.3 85.3-79.7 106.7-136.1 9.7-25.6 15.4-52.1 17.3-79.5 3.6-51.1-5.6-99.8-28.1-145.9zm-197.8-0.3c14.4-30.3 28.8-60.6 43.3-90.8 4.1-8.5 9.9-10.2 18.3-5.5 3.9 2.2 7.8 4.3 11.6 6.7 6.2 3.9 7.8 9.8 4.5 16.4-0.6 1.2-1.3 2.2-2 3.3-17.2 27.5-34.5 55-51.7 82.4-1.2 1.9-2.5 3.8-4 5.3-2.9 2.8-6.3 3.7-10.3 2.5-7.1-2.2-11.6-7.4-11.6-14.6 0.4-1.1 0.9-3.5 1.9-5.7zm-139.3 238.8c-19.2 27.5-38.4 54.9-57.7 82.4-2.5 3.6-5.6 6.5-11.7 6.7-1.4-0.7-4.1-1.6-6.2-3.2-15.1-11.7-28.6-25-40.7-39.8-5.1-6.2-4.2-12.2 2.5-17.3 6.9-5.3 14.1-10.4 21.1-15.6 19.7-14.5 39.3-28.9 59-43.4 8.9-6.6 13.8-6.1 21.4 1.7 3.4 3.5 7 6.7 10.4 10.1 6.2 6.2 6.8 11.4 1.9 18.4zm166.3-129c-12.5 12.8-24.9 25.5-37.4 38.3-1.9 2-1.9 2-1.5 4.6 1.4 8.2 2.7 16.3 4 24.5 1.4 8.3 2.7 16.7 4.1 25 0.3 2.1 0.7 4.2 0.9 6.4 0.1 2.6-1.7 4.7-4.1 5.3-1.8 0.5-3.3-0.1-4.8-0.9-15.5-8.6-31-17.1-46.5-25.7-1.2-0.7-2.1-0.6-3.3 0-12.6 7-25.3 14-37.9 21-3 1.7-6.1 3.3-9.1 5-2.9 1.6-5.6 0.5-7.1-1.2-1.3-1.5-1.4-3.4-1.1-5.2 1.3-7.9 2.6-15.8 3.9-23.6 1.7-10.6 3.4-21.1 5.2-31.7 0.2-1.2-0.1-1.9-0.9-2.7-9.8-10-19.5-19.9-29.2-30-3.7-3.8-10-9.6-11-11.7-0.5-1-0.4-2.4 0-3.5 0.1-0.4 0.7-1.2 1-1.4 1-1 2-2 3.8-2.4 1.5-0.3 3.1-0.5 4.6-0.7l21.6-3.3c8.9-1.3 17.7-2.7 26.6-4.1 1.3-0.2 2.1-0.7 2.7-2 7.6-16.3 15.2-32.5 22.8-48.8 1-2.1 2.1-3.9 4.5-4.7v-0.2h2.8c0 0.1 0.1 0.3 0.1 0.3 2.2 0.6 3.3 2.2 4.2 4.1 7.7 16.5 15.4 32.9 23.1 49.3 0.6 1.3 1.4 1.7 2.7 1.9 4.9 0.7 9.8 1.4 14.8 2.2 7.3 1.1 14.5 2.2 21.8 3.4 5.4 0.8 10.8 1.6 16.1 2.5 2.4 0.4 4 1.8 4.6 4.1 0.5 2.4-0.4 4.2-2 5.9zm141.8-58.3c-32.4 10.6-64.8 21-97.2 31.4-7.3 2.3-12.2 0.2-15.9-6.4-4-7.2-7.9-14.3-11.7-21.6-1.3-2.4-1.9-5.2-2.8-7.8 0.4-4.7 2.8-7.9 5.8-10.8 10.5-10.3 21-20.6 31.6-30.9 12.9-12.7 25.8-25.3 38.8-38 0.9-0.9 1.8-1.9 2.8-2.7 5.6-4.7 11.8-4.5 16.1 1.4 8.2 11.3 16.6 22.6 23.6 34.6 6.4 10.9 11.3 22.6 16.4 34.2 3.6 8 0.9 13.9-7.5 16.6z" />
</svg>
